<svg style="display: none;">
	<symbol id="svgLogo" viewBox="0 0 267.896 123.5">
		<g>
			<path d="M23.629,2.354c9.217-4.685,21.306,2.418,21.306,26.142c0,5.742-1.058,14.506-3.324,23.724c1.813,0,3.475-0.302,5.289-0.756
				c1.964-10.275,5.138-25.386,10.729-35.359c17.982-32.942,34.453-5.44,22.364,19.493C75.005,45.874,63.975,57.056,48.108,61.74
				c-1.964,6.649-5.138,13.75-6.044,15.564c0,0,23.724,14.355,40.799,16.169c4.231,0.453,11.031-0.303,13.146-6.045
				c0.604-1.511,1.965-1.662,1.36,0.151c-3.173,8.613-13.6,10.578-20.4,9.822c-15.413-1.662-36.417-17.227-36.417-17.227
				c-5.742,8.765-13.297,13.298-23.724,11.333C-5.384,87.579-4.477,62.042,16.678,65.82c4.533,0.907,11.333,3.929,16.471,6.498
				c1.209-2.569,2.418-5.742,3.476-8.764c-17.075,0.755-25.235-8.916-19.342-21.76C8.367,28.798,10.634,8.852,23.629,2.354z
				 M32.846,75.944c-4.08,6.648-9.217,11.03-15.564,10.729c-0.907,0-0.907-1.209-0.151-1.209c6.044,0.302,10.729-3.777,14.355-10.124
				c-3.777-1.662-8.311-3.627-11.484-4.231c-18.436-3.324-19.644,16.773-2.72,18.737c15.262,1.813,20.853-11.182,20.853-11.182
				S35.869,77.455,32.846,75.944z M42.517,28.798c0.151-46.39-41.101-24.782-23.875,10.578c1.511-2.569,3.778-4.987,6.498-6.8
				c0.453-0.302,1.964-0.454,1.208,0.151c-3.324,2.72-5.44,5.893-6.498,9.066c4.231,6.498,12.24,10.275,19.795,10.427
				C41.611,43.002,42.517,34.238,42.517,28.798z M19.398,44.514C18.34,54.789,28.313,60.682,37.38,60.682
				c0.755-2.418,1.36-4.835,1.964-7.253C30.58,53.127,23.931,49.651,19.398,44.514z M34.509,73.073c3.022,1.511,5.138,2.72,5.138,2.72
				c1.964-3.777,3.173-8.16,4.835-13.449c-2.116,0.454-4.08,0.755-6.044,1.058C37.229,66.727,35.869,70.202,34.509,73.073z
				 M41.309,53.429c-0.604,2.418-1.209,4.835-1.964,7.253c1.813-0.151,3.777-0.453,5.893-0.907l1.36-6.951
				C44.784,53.278,43.122,53.429,41.309,53.429z M56.268,36.958c-1.511,4.08-2.871,8.16-4.231,12.542
				c5.289-2.72,10.275-7.555,13.902-14.959c0.302-0.755,1.511-0.151,1.058,0.453c-4.08,8.311-9.52,13.449-15.413,16.168l-2.569,7.556
				c13.75-3.778,22.515-14.053,27.199-24.782C87.699,8.701,76.667-18.347,56.268,36.958z"/>
			<path d="M97.067,89.393c-6.195-2.115-5.591-15.262-5.591-15.413c0-0.453-9.369,16.924-16.168,16.018
				c-10.124-1.511-3.022-21.911,8.311-32.639c5.893-5.44,12.844-8.311,19.342-4.987c3.778,2.116,3.173,7.858-0.302,8.462
				c3.324-5.893-3.022-9.369-10.729-2.72c-6.044,5.138-12.542,14.204-15.262,20.702c-2.871,7.404-1.813,11.333,5.138,4.533
				c3.325-3.174,7.556-9.369,11.182-14.658c2.569-3.476,4.987-4.835,4.835,0.151c-0.302,4.08-0.453,8.462,0,11.484
				c1.209,6.195,3.324,8.462,9.066,5.289c4.08-2.267,7.404-6.347,8.009-6.951c0.453-0.303,1.058,0.604,1.058,0.604
				C115.502,80.175,105.529,92.112,97.067,89.393z"/>
			<path d="M148.745,62.798c-2.115,0.604-4.835,0.302-6.8-0.907c0,2.72-3.929,11.031-9.52,17.075
				c-7.857,8.613-14.053,11.636-19.04,10.427c-8.009-1.662,3.173-22.515,2.116-26.897c-0.302-1.209-1.209-3.173-2.116-3.476
				s0-2.267,1.813-4.987c0.907-1.511,7.555-0.453,7.555,0.907c0,6.195-8.16,29.164-4.986,30.977c2.417,1.511,8.009-3.022,12.995-8.915
				c4.685-5.742,8.765-12.693,9.218-16.471c-4.685-5.289-3.627-11.484-1.359-11.938c5.893-0.906,3.777,11.182,3.777,11.182
				c4.684,2.72,7.404-0.151,7.404-0.151C151.465,59.927,150.558,62.193,148.745,62.798z"/>
			<path d="M160.532,85.464c-8.765,6.497-14.507,5.289-13.146-8.462c0.604-6.045,4.382-18.133,4.986-20.249
				c0.303-1.511,6.498-1.662,6.498,0.604c0,1.511-1.512,7.102-3.778,7.555c-0.755,0.151-1.511,6.8-2.267,12.995
				c-0.906,6.045,0,11.183,6.951,5.44c2.569-2.116,7.404-5.592,9.218-7.707c0.756-0.604,1.511-0.151,1.058,0.756
				C169.145,77.908,164.914,82.29,160.532,85.464z M160.079,49.198c-1.965,0.454-5.592-0.907-4.534-1.813
				c4.685-3.929,9.671-5.289,9.671-3.778C165.215,44.514,162.194,48.593,160.079,49.198z"/>
			<path d="M193.322,82.593c-2.871,1.964-9.671,5.591-9.671,5.742c-2.115,4.08-17.227,6.347-21.155,4.382
				c-1.813-1.058-1.36-4.533,3.929-4.835c3.627-0.303,12.542-0.604,15.715-1.512c2.116-3.324,1.209-5.893-2.267-8.915
				c-5.439-4.685-10.729-12.24-7.253-18.133c8.916-14.809,22.213-7.253,20.249-2.418c-0.303,1.058-1.209,0.604-1.36-0.302
				c-0.604-5.893-11.182-0.755-14.053,6.498c-3.778,9.974,11.635,13.751,7.404,22.364c0,0,7.706-3.627,11.938-6.648
				C197.25,78.361,197.704,79.57,193.322,82.593z"/>
			<path d="M259.204,32.878c-13.146,10.124-34.453,16.773-51.528,22.213c-2.115,5.742-4.08,17.377-5.138,24.177
				c3.627-5.591,7.707-10.125,12.542-16.622c0.907-3.929,7.404-9.973,6.195-2.871c-0.906,5.742-1.813,12.089-1.813,16.319
				c0,8.916,1.813,12.24,8.16,7.556c4.382-3.173,8.462-9.066,9.218-9.822c0.453-0.453,0.756,0.907,0.756,0.907
				c-0.454,1.209-12.542,18.435-20.551,14.355c-5.894-2.871-3.022-21.76-2.871-21.911c0-0.755-7.556,9.066-11.938,14.657
				c-0.453,6.498-5.44,9.066-5.44,7.556c-0.302-5.742,3.324-26.897,5.591-32.791c-3.475,0.907-4.835,2.267-4.986,3.778
				c-0.302,2.116-1.813,2.418-1.662,0c0.151-3.324,4.685-5.591,7.707-6.498c4.835-15.866,15.262-35.057,28.257-44.879
				c4.382-3.476,9.368-5.742,14.204-6.8c8.462-1.813,17.528,1.36,20.853,9.822C269.629,19.732,266.154,27.589,259.204,32.878z
				 M245.301,6.737c-24.631,4.835-30.675,29.013-37.021,45.786c12.995-3.627,39.439-15.715,49.865-23.573
				c4.685-3.626,9.521-9.369,7.254-15.262C262.528,6.132,252.101,5.376,245.301,6.737z"/>
		</g>
		<g>
			<path d="M137.532,102.967c-0.072,0.072-0.13,0.151-0.173,0.238c-0.044,0.086-0.102,0.166-0.174,0.238
				c-0.13-0.116-0.292-0.242-0.487-0.38c-0.194-0.137-0.419-0.267-0.671-0.39c-0.253-0.122-0.539-0.224-0.856-0.303
				c-0.317-0.08-0.657-0.119-1.018-0.119c-0.535,0-1.001,0.09-1.397,0.271c-0.397,0.181-0.729,0.422-0.997,0.726
				s-0.466,0.65-0.596,1.04s-0.194,0.794-0.194,1.213c0,0.434,0.064,0.806,0.194,1.116s0.317,0.573,0.563,0.79
				c0.245,0.217,0.542,0.405,0.889,0.563c0.347,0.159,0.736,0.311,1.169,0.455c0.448,0.159,0.961,0.329,1.539,0.509
				c0.577,0.181,1.122,0.434,1.635,0.759c0.513,0.324,0.946,0.74,1.3,1.245c0.354,0.506,0.531,1.156,0.531,1.95
				c0,0.636-0.119,1.213-0.357,1.733c-0.238,0.52-0.567,0.964-0.985,1.332c-0.42,0.368-0.907,0.649-1.463,0.845
				s-1.145,0.292-1.766,0.292c-0.563,0-1.08-0.075-1.549-0.227c-0.47-0.152-0.885-0.332-1.246-0.542
				c-0.36-0.209-0.671-0.426-0.931-0.65c-0.261-0.224-0.463-0.415-0.607-0.573l0.434-0.434c0.202,0.217,0.434,0.434,0.693,0.649
				c0.26,0.217,0.549,0.412,0.866,0.585c0.317,0.174,0.664,0.318,1.04,0.434c0.376,0.116,0.787,0.174,1.235,0.174
				c0.52,0,1.021-0.083,1.505-0.25c0.484-0.165,0.914-0.4,1.289-0.704c0.376-0.303,0.675-0.675,0.899-1.115
				c0.224-0.44,0.336-0.935,0.336-1.484c0-0.664-0.145-1.216-0.434-1.657c-0.289-0.44-0.653-0.805-1.094-1.094s-0.921-0.52-1.44-0.693
				c-0.521-0.173-1.019-0.339-1.495-0.498c-0.26-0.072-0.578-0.177-0.953-0.314c-0.376-0.137-0.736-0.332-1.083-0.585
				c-0.347-0.252-0.646-0.57-0.899-0.953c-0.253-0.382-0.394-0.862-0.423-1.44c-0.028-0.477,0.025-0.957,0.163-1.44
				c0.137-0.484,0.36-0.921,0.672-1.311c0.31-0.391,0.715-0.704,1.213-0.942s1.094-0.357,1.787-0.357c0.549,0,1.098,0.094,1.646,0.281
				S136.955,102.476,137.532,102.967z"/>
			<path d="M140.414,112.845c0-0.577,0.108-1.122,0.325-1.635s0.516-0.961,0.898-1.344s0.831-0.686,1.344-0.91
				c0.513-0.224,1.064-0.335,1.657-0.335c0.434,0,0.845,0.062,1.234,0.184c0.391,0.123,0.748,0.293,1.072,0.509
				c0.325,0.217,0.607,0.47,0.846,0.759s0.422,0.593,0.552,0.91c0-0.361,0.008-0.723,0.021-1.084c0.015-0.36,0.036-0.729,0.065-1.104
				h0.455v8.124h-0.542v-1.083v-1.127c-0.245,0.65-0.696,1.202-1.354,1.657s-1.44,0.689-2.351,0.704c-0.593,0-1.145-0.111-1.657-0.336
				c-0.513-0.224-0.961-0.522-1.344-0.898s-0.682-0.819-0.898-1.332S140.414,113.438,140.414,112.845z M141.02,112.845
				c0,0.506,0.094,0.979,0.282,1.419c0.188,0.441,0.443,0.823,0.769,1.148s0.708,0.582,1.148,0.77s0.913,0.281,1.419,0.281
				c0.505,0,0.981-0.094,1.43-0.281c0.447-0.188,0.838-0.444,1.17-0.77s0.592-0.707,0.78-1.148c0.188-0.439,0.281-0.913,0.281-1.419
				c0-0.505-0.094-0.978-0.281-1.419c-0.188-0.44-0.448-0.826-0.78-1.158s-0.723-0.593-1.17-0.78c-0.448-0.188-0.925-0.281-1.43-0.281
				c-0.506,0-0.979,0.094-1.419,0.281s-0.823,0.448-1.148,0.78s-0.581,0.718-0.769,1.158
				C141.114,111.867,141.02,112.34,141.02,112.845z"/>
			<path d="M152.523,116.918h-0.606V100.67h0.606V116.918z"/>
			<path d="M154.971,112.845c0-0.577,0.111-1.126,0.335-1.646c0.225-0.52,0.523-0.971,0.899-1.354c0.375-0.383,0.819-0.686,1.332-0.91
				c0.513-0.224,1.065-0.336,1.657-0.336c0.593,0,1.148,0.112,1.669,0.336c0.52,0.225,0.971,0.527,1.354,0.91s0.686,0.834,0.91,1.354
				c0.224,0.521,0.336,1.069,0.336,1.646c0,0.593-0.112,1.146-0.336,1.658c-0.225,0.513-0.527,0.956-0.91,1.332
				s-0.834,0.675-1.354,0.898c-0.521,0.225-1.076,0.336-1.669,0.336c-0.592,0-1.145-0.111-1.657-0.336
				c-0.513-0.224-0.957-0.522-1.332-0.898c-0.376-0.376-0.675-0.819-0.899-1.332C155.083,113.99,154.971,113.438,154.971,112.845z
				 M155.578,112.845c0,0.506,0.094,0.979,0.281,1.419c0.188,0.441,0.444,0.823,0.77,1.148c0.324,0.325,0.707,0.582,1.147,0.77
				s0.914,0.281,1.419,0.281c0.506,0,0.979-0.094,1.419-0.281s0.827-0.444,1.159-0.77s0.593-0.707,0.78-1.148
				c0.188-0.439,0.281-0.913,0.281-1.419c0-0.505-0.094-0.978-0.281-1.419c-0.188-0.44-0.448-0.826-0.78-1.158
				s-0.719-0.593-1.159-0.78s-0.913-0.281-1.419-0.281c-0.505,0-0.979,0.094-1.419,0.281s-0.823,0.448-1.147,0.78
				c-0.325,0.332-0.582,0.718-0.77,1.158C155.671,111.867,155.578,112.34,155.578,112.845z"/>
			<path d="M166.734,108.794h0.563v0.953c-0.015,0.202-0.021,0.397-0.021,0.585c0,0.188,0,0.383,0,0.585
				c0.288-0.693,0.751-1.245,1.387-1.657c0.635-0.411,1.357-0.617,2.166-0.617c0.78,0,1.397,0.224,1.853,0.671
				c0.455,0.448,0.696,1.033,0.726,1.755v5.85H172.8v-5.806c-0.029-0.506-0.21-0.938-0.542-1.3s-0.809-0.556-1.43-0.585
				c-0.463,0-0.906,0.075-1.332,0.228c-0.427,0.151-0.799,0.364-1.116,0.639s-0.57,0.604-0.758,0.985
				c-0.188,0.383-0.282,0.799-0.282,1.246v4.593h-0.606V108.794z"/>
			<path d="M192.34,111.762v1.105c0,0.36-0.047,0.707-0.141,1.039c-0.094,0.333-0.221,0.644-0.379,0.932
				c0.23,0.361,0.455,0.719,0.672,1.072c0.216,0.354,0.44,0.719,0.671,1.095c-0.072,0.058-0.147,0.111-0.228,0.162
				c-0.079,0.051-0.162,0.104-0.249,0.162c-0.202-0.317-0.4-0.639-0.596-0.964c-0.194-0.324-0.394-0.646-0.596-0.964
				c-0.39,0.506-0.877,0.91-1.462,1.213c-0.585,0.304-1.231,0.455-1.939,0.455c-0.592,0-1.145-0.108-1.657-0.324
				c-0.513-0.217-0.96-0.517-1.343-0.899s-0.683-0.827-0.899-1.332c-0.217-0.506-0.325-1.055-0.325-1.646
				c0-0.521,0.091-1.015,0.271-1.484c0.181-0.469,0.426-0.888,0.736-1.257c0.311-0.368,0.679-0.675,1.104-0.92
				c0.426-0.246,0.892-0.412,1.397-0.499c-0.245-0.418-0.498-0.841-0.758-1.267s-0.521-0.849-0.78-1.268
				c-0.26-0.434-0.444-0.881-0.552-1.344c-0.108-0.462-0.127-0.917-0.055-1.364s0.238-0.866,0.498-1.257
				c0.26-0.39,0.629-0.729,1.105-1.018c0.404-0.246,0.819-0.394,1.245-0.444s0.842-0.04,1.246,0.032s0.783,0.188,1.137,0.347
				c0.354,0.159,0.668,0.325,0.942,0.498c-0.043,0.087-0.086,0.174-0.13,0.26c-0.043,0.087-0.079,0.174-0.108,0.261
				c-0.303-0.174-0.617-0.336-0.942-0.487c-0.324-0.152-0.653-0.261-0.985-0.325c-0.332-0.065-0.668-0.076-1.007-0.033
				c-0.34,0.044-0.676,0.167-1.008,0.369c-0.419,0.26-0.744,0.56-0.975,0.898c-0.231,0.34-0.376,0.701-0.434,1.083
				c-0.058,0.383-0.04,0.77,0.054,1.159c0.094,0.391,0.257,0.773,0.488,1.148c0.823,1.357,1.649,2.705,2.48,4.04
				c0.83,1.336,1.657,2.684,2.48,4.041c0.13-0.274,0.234-0.56,0.313-0.856c0.079-0.296,0.127-0.603,0.142-0.921v-1.213
				c0.014-0.592,0.082-1.043,0.205-1.354s0.278-0.531,0.466-0.661s0.397-0.202,0.629-0.217c0.23-0.014,0.469-0.021,0.715-0.021h0.845
				v0.585h-1.17c-0.448,0-0.747,0.177-0.899,0.531C192.417,110.264,192.34,110.881,192.34,111.762z M184.477,112.867
				c0,0.505,0.094,0.979,0.281,1.419s0.444,0.823,0.77,1.147c0.324,0.325,0.707,0.582,1.147,0.77s0.913,0.281,1.419,0.281
				c0.65,0,1.242-0.147,1.776-0.443s0.961-0.697,1.278-1.203c-0.563-0.938-1.13-1.866-1.7-2.783c-0.571-0.917-1.145-1.845-1.723-2.784
				c-0.462,0.043-0.892,0.166-1.289,0.368c-0.397,0.203-0.74,0.463-1.028,0.78c-0.289,0.317-0.517,0.686-0.683,1.104
				S184.477,112.391,184.477,112.867z"/>
			<path d="M212.466,102.967c-0.072,0.072-0.13,0.151-0.173,0.238c-0.044,0.086-0.102,0.166-0.174,0.238
				c-0.13-0.116-0.292-0.242-0.487-0.38c-0.194-0.137-0.419-0.267-0.671-0.39c-0.253-0.122-0.539-0.224-0.856-0.303
				c-0.317-0.08-0.657-0.119-1.018-0.119c-0.535,0-1.001,0.09-1.397,0.271c-0.397,0.181-0.729,0.422-0.997,0.726
				s-0.466,0.65-0.596,1.04s-0.194,0.794-0.194,1.213c0,0.434,0.064,0.806,0.194,1.116s0.317,0.573,0.563,0.79
				c0.245,0.217,0.542,0.405,0.889,0.563c0.347,0.159,0.736,0.311,1.169,0.455c0.448,0.159,0.961,0.329,1.539,0.509
				c0.577,0.181,1.122,0.434,1.635,0.759c0.513,0.324,0.946,0.74,1.3,1.245c0.354,0.506,0.531,1.156,0.531,1.95
				c0,0.636-0.119,1.213-0.357,1.733c-0.238,0.52-0.567,0.964-0.985,1.332c-0.42,0.368-0.907,0.649-1.463,0.845
				s-1.145,0.292-1.766,0.292c-0.563,0-1.08-0.075-1.549-0.227c-0.47-0.152-0.885-0.332-1.246-0.542
				c-0.36-0.209-0.671-0.426-0.931-0.65c-0.261-0.224-0.463-0.415-0.607-0.573l0.434-0.434c0.202,0.217,0.434,0.434,0.693,0.649
				c0.26,0.217,0.549,0.412,0.866,0.585c0.317,0.174,0.664,0.318,1.04,0.434c0.376,0.116,0.787,0.174,1.235,0.174
				c0.52,0,1.021-0.083,1.505-0.25c0.484-0.165,0.914-0.4,1.289-0.704c0.376-0.303,0.675-0.675,0.899-1.115
				c0.224-0.44,0.336-0.935,0.336-1.484c0-0.664-0.145-1.216-0.434-1.657c-0.289-0.44-0.653-0.805-1.094-1.094s-0.921-0.52-1.44-0.693
				c-0.521-0.173-1.019-0.339-1.495-0.498c-0.26-0.072-0.578-0.177-0.953-0.314c-0.376-0.137-0.736-0.332-1.083-0.585
				c-0.347-0.252-0.646-0.57-0.899-0.953c-0.253-0.382-0.394-0.862-0.423-1.44c-0.028-0.477,0.025-0.957,0.163-1.44
				c0.137-0.484,0.36-0.921,0.672-1.311c0.31-0.391,0.715-0.704,1.213-0.942s1.094-0.357,1.787-0.357c0.549,0,1.098,0.094,1.646,0.281
				S211.889,102.476,212.466,102.967z"/>
			<path d="M225.031,112.867c0,0.592-0.108,1.145-0.325,1.657c-0.216,0.513-0.517,0.957-0.898,1.332
				c-0.383,0.376-0.831,0.676-1.344,0.899s-1.064,0.335-1.657,0.335c-0.447,0-0.866-0.062-1.256-0.184
				c-0.391-0.123-0.748-0.293-1.072-0.509c-0.325-0.217-0.604-0.466-0.834-0.748c-0.231-0.281-0.405-0.581-0.521-0.898
				c0,0.173,0.007,0.347,0.021,0.52c0.015,0.174,0.029,0.34,0.044,0.498v6.564h-0.629v-13.54h0.542v2.253
				c0.13-0.317,0.311-0.624,0.542-0.921c0.23-0.296,0.509-0.552,0.834-0.769c0.324-0.217,0.686-0.39,1.083-0.521
				c0.396-0.13,0.813-0.194,1.245-0.194c0.593,0,1.145,0.112,1.657,0.336s0.961,0.523,1.344,0.898
				c0.382,0.376,0.683,0.823,0.898,1.344C224.922,111.74,225.031,112.289,225.031,112.867z M224.424,112.867
				c0-0.506-0.094-0.979-0.281-1.419c-0.188-0.44-0.444-0.823-0.77-1.148s-0.708-0.581-1.148-0.77
				c-0.44-0.188-0.913-0.281-1.419-0.281s-0.982,0.094-1.43,0.281c-0.447,0.188-0.834,0.444-1.159,0.77
				c-0.324,0.325-0.581,0.708-0.769,1.148c-0.188,0.44-0.282,0.913-0.282,1.419c0,0.505,0.094,0.979,0.282,1.419
				c0.188,0.44,0.444,0.826,0.769,1.159c0.325,0.332,0.712,0.592,1.159,0.779s0.924,0.282,1.43,0.282s0.979-0.095,1.419-0.282
				s0.823-0.447,1.148-0.779c0.325-0.333,0.581-0.719,0.77-1.159C224.331,113.846,224.424,113.372,224.424,112.867z"/>
			<path d="M227.543,112.845c0-0.577,0.108-1.122,0.325-1.635s0.516-0.961,0.898-1.344s0.831-0.686,1.344-0.91
				c0.513-0.224,1.064-0.335,1.657-0.335c0.434,0,0.845,0.062,1.234,0.184c0.391,0.123,0.748,0.293,1.072,0.509
				c0.325,0.217,0.607,0.47,0.846,0.759s0.422,0.593,0.552,0.91c0-0.361,0.008-0.723,0.021-1.084c0.015-0.36,0.036-0.729,0.065-1.104
				h0.455v8.124h-0.542v-1.083v-1.127c-0.245,0.65-0.696,1.202-1.354,1.657s-1.44,0.689-2.351,0.704c-0.593,0-1.145-0.111-1.657-0.336
				c-0.513-0.224-0.961-0.522-1.344-0.898s-0.682-0.819-0.898-1.332S227.543,113.438,227.543,112.845z M228.15,112.845
				c0,0.506,0.094,0.979,0.282,1.419c0.188,0.441,0.443,0.823,0.769,1.148s0.708,0.582,1.148,0.77s0.913,0.281,1.419,0.281
				c0.505,0,0.981-0.094,1.43-0.281c0.447-0.188,0.838-0.444,1.17-0.77s0.592-0.707,0.78-1.148c0.188-0.439,0.281-0.913,0.281-1.419
				c0-0.505-0.094-0.978-0.281-1.419c-0.188-0.44-0.448-0.826-0.78-1.158s-0.723-0.593-1.17-0.78c-0.448-0.188-0.925-0.281-1.43-0.281
				c-0.506,0-0.979,0.094-1.419,0.281s-0.823,0.448-1.148,0.78s-0.581,0.718-0.769,1.158
				C228.244,111.867,228.15,112.34,228.15,112.845z"/>
		</g>
	</symbol>
</svg>
