<svg version="1.1" id="Layer_1" xmlns="http://www.w3.org/2000/svg" xmlns:xlink="http://www.w3.org/1999/xlink" x="0px" y="0px"
	 width="214.481px" height="59.484px" viewBox="0 0 214.481 59.484" enable-background="new 0 0 214.481 59.484"
	 xml:space="preserve">
<path id="path2383_1_" fill="#010101" d="M20.325,30.715c5.347-7.566,3.673-18.679-0.898-21.885
	C11.364,2.976,2.551,15.196,6.59,27.357c4.031,12.518,14.122,21.268,27.859,23.77c29.804,5.267,88.754-27.178,126.14-37.104
	c27.772-7.375,44.737,3.707,53.892,15.979c-18.813-13.327-35.961-8.69-53.609-5.42c-40.492,7.508-82.376,39.385-126.758,34.37
	C13.393,55.857-1.125,35.281,0.068,19.146c0.106-1.435,0.336-2.832,0.697-4.182C3.493,5.403,8.285,1.482,12.531,0.319
	C24.07-2.841,35.503,18.192,20.325,30.715z"/>
</svg>
