<svg id="swirls" style="display: none;">
	<symbol id="swirlLeft" viewBox="0 0 214.481 59.484">
		<path id="path2383_1_" d="M20.325,30.715c5.347-7.566,3.673-18.679-0.898-21.885
		C11.364,2.976,2.551,15.196,6.59,27.357c4.031,12.518,14.122,21.268,27.859,23.77c29.804,5.267,88.754-27.178,126.14-37.104
		c27.772-7.375,44.737,3.707,53.892,15.979c-18.813-13.327-35.961-8.69-53.609-5.42c-40.492,7.508-82.376,39.385-126.758,34.37
		C13.393,55.857-1.125,35.281,0.068,19.146c0.106-1.435,0.336-2.832,0.697-4.182C3.493,5.403,8.285,1.482,12.531,0.319
		C24.07-2.841,35.503,18.192,20.325,30.715z"/>
	</symbol>
	<symbol id="swirlRight" viewBox="0 0 227.48 59.987">
		<path id="path2479_1_" d="M205.925,29.012c-5.672,7.632-3.896,18.837,0.951,22.069
		c8.553,5.905,17.898-6.42,13.615-18.684c-4.273-12.623-14.979-21.447-29.549-23.97C159.333,3.118,96.81,35.834,57.157,45.846
		C27.702,53.283,9.709,42.108,0,29.731c19.955,13.438,38.144,8.765,56.858,5.466C99.806,27.625,144.228-4.519,191.3,0.537
		c21.977,3.122,37.375,23.871,36.107,40.142c-0.111,1.445-0.355,2.855-0.738,4.217c-2.893,9.642-7.977,13.596-12.479,14.77
		C201.952,62.852,189.827,41.642,205.925,29.012z"/>
	</symbol>
</svg>