<?xml version="1.0" encoding="utf-8"?>
<!-- Generator: Adobe Illustrator 15.1.0, SVG Export Plug-In . SVG Version: 6.00 Build 0)  -->
<!DOCTYPE svg PUBLIC "-//W3C//DTD SVG 1.1//EN" "http://www.w3.org/Graphics/SVG/1.1/DTD/svg11.dtd">
<svg version="1.1" id="Layer_1" xmlns="http://www.w3.org/2000/svg" xmlns:xlink="http://www.w3.org/1999/xlink" x="0px" y="0px"
	 width="227.482px" height="59.985px" viewBox="0 0 227.482 59.985" enable-background="new 0 0 227.482 59.985"
	 xml:space="preserve">
<path id="path2479_1_" fill="#010101" d="M205.924,29.011c-5.671,7.632-3.895,18.837,0.952,22.07
	c8.552,5.905,17.899-6.42,13.615-18.684c-4.274-12.623-14.978-21.447-29.548-23.97c-31.61-5.31-94.134,27.407-133.785,37.418
	C27.702,53.282,9.709,42.107,0,29.73c19.955,13.439,38.143,8.765,56.859,5.466c42.947-7.571,87.369-39.716,134.441-34.66
	c21.977,3.122,37.375,23.871,36.108,40.141c-0.112,1.446-0.356,2.856-0.739,4.217c-2.893,9.642-7.976,13.596-12.479,14.77
	C201.951,62.851,189.826,41.641,205.924,29.011z"/>
</svg>
