<?xml version="1.0" encoding="utf-8"?>
<!-- Generator: Adobe Illustrator 15.1.0, SVG Export Plug-In . SVG Version: 6.00 Build 0)  -->
<!DOCTYPE svg PUBLIC "-//W3C//DTD SVG 1.1//EN" "http://www.w3.org/Graphics/SVG/1.1/DTD/svg11.dtd">
<svg version="1.1" id="Layer_1" xmlns="http://www.w3.org/2000/svg" xmlns:xlink="http://www.w3.org/1999/xlink" x="0px" y="0px"
	 width="398.579px" height="59.985px" viewBox="88.599 123.688 398.579 59.985"
	 enable-background="new 88.599 123.688 398.579 59.985" xml:space="preserve">
<title>black swirl divider - simple</title>
<path id="path2383_1_" d="M108.925,154.984c5.347-7.567,3.673-18.679-0.898-21.885c-8.063-5.855-16.876,6.366-12.837,18.527
	c4.031,12.518,14.122,21.268,27.859,23.77c29.804,5.266,88.754-27.178,126.14-37.105c27.772-7.375,44.737,3.707,53.892,15.98
	c-18.814-13.327-35.962-8.691-53.61-5.42c-40.492,7.508-82.376,39.385-126.758,34.37c-20.721-3.095-35.239-23.671-34.045-39.806
	c0.106-1.434,0.336-2.832,0.697-4.181c2.728-9.562,7.52-13.483,11.766-14.646C112.67,121.428,124.103,142.461,108.925,154.984z"/>
<path id="path2479_1_" d="M465.619,152.699c-5.671,7.632-3.895,18.837,0.952,22.07c8.552,5.905,17.899-6.42,13.615-18.684
	c-4.274-12.623-14.978-21.447-29.548-23.97c-31.61-5.31-94.134,27.407-133.785,37.418c-29.456,7.437-47.449-3.738-57.158-16.115
	c19.955,13.439,38.143,8.765,56.859,5.466c42.947-7.571,87.369-39.716,134.441-34.66c21.977,3.122,37.375,23.871,36.108,40.141
	c-0.112,1.446-0.356,2.856-0.739,4.217c-2.893,9.642-7.976,13.596-12.479,14.77C461.646,186.539,449.521,165.329,465.619,152.699z"
	/>
</svg>
