<svg>
  <path transform="translate(-76.01866912841797,-179.92950439453125) " fill="#2e3436" id="path3046"/>
  <path transform="rotate(-78.13436126708984 313.4403381347656,361.34765625) " fill="#000000" stroke="#000000" stroke-width="0" id="path6544" d="m284.862671,121.09581c-6.617218,0.093803 -13.216553,1.098427 -19.569031,3.157089c-10.163849,3.293892 -19.685852,9.394028 -26.883011,18.088623c-7.197174,8.694534 -11.968552,20.015976 -12.715439,31.848587c-0.746841,11.832504 2.689178,24.085678 9.846512,32.821533c4.116684,5.024521 9.384232,8.84964 15.159317,11.000107c5.775055,2.150421 12.048553,2.615112 18.02829,1.350143c3.890381,-0.822998 7.642242,-2.377945 11.086182,-4.566849c-1.903137,0.868347 -3.878143,1.538635 -5.897369,1.965729c-5.133789,1.085999 -10.519958,0.674744 -15.478058,-1.171448c-4.958099,-1.846268 -9.482208,-5.137604 -13.016479,-9.451324c-6.144836,-7.500076 -9.088623,-17.996719 -8.447479,-28.155518c0.641266,-10.158676 4.730042,-19.896561 10.909119,-27.361176c6.179047,-7.464584 14.367126,-12.699249 23.093201,-15.5271c8.726044,-2.827942 17.975464,-3.302277 26.989288,-2.045197c14.533661,2.026764 28.479279,8.534058 40.377594,18.108429c11.898468,9.574371 21.77597,22.162918 29.291626,36.256592c15.031219,28.187225 20.433228,61.79361 20.08255,94.632507c-0.701294,65.677551 -23.081726,129.040283 -25.519409,194.665649c-0.786255,21.167603 0.525513,42.434113 3.896118,63.280304c3.370514,20.846069 13.914093,80.154846 9.988129,55.873901c-3.925934,-24.280762 -5.449402,-49.049194 -4.5336,-73.704468c2.839294,-76.438477 28.899689,-150.253204 29.716522,-226.752441c0.408447,-38.249817 -5.868591,-77.38765 -23.376526,-110.219284c-8.753998,-16.415848 -20.267365,-31.081223 -34.126251,-42.233261c-13.858917,-11.151901 -30.090393,-18.725922 -47.018738,-21.086746c-3.937134,-0.549004 -7.91272,-0.830521 -11.883057,-0.774384zm-5.04718,93.699234c2.935577,-1.339447 5.691437,-3.168442 8.128632,-5.440475c3.515045,-3.276749 6.364807,-7.443222 8.288025,-12.092178c0.013153,-0.031906 0.022339,-0.067215 0.035492,-0.099258c1.064026,-2.203186 1.611511,-5.065765 1.611511,-7.3069c0,-4.210922 -3.044708,-7.624588 -6.800446,-7.624588c-3.755798,0 -6.800446,3.413666 -6.800446,7.624588c0,4.210953 4.213501,10.662613 7.969238,10.662613c0.234741,0 0.452942,-0.031158 0.672943,-0.079498c-2.082489,3.887985 -4.752411,7.38559 -7.863007,10.285294c-1.634827,1.524124 -3.392456,2.894989 -5.241943,4.070404z"/>
</svg>