<svg viewBox="0 0 48 48" xmlns="http://www.w3.org/2000/svg" xmlns:xlink="http://www.w3.org/1999/xlink"><path fill="#555" clip-rule="evenodd" d="M43 40H5c-2.209 0-4-1.791-4-4V12c0-2.209 1.791-4 4-4h38c2.209 0 4 1.791 4 4v24c0 2.209-1.791 4-4 4zM3 21h42v-4H3v4zm42-9c0-1.104-.896-2-2-2H5c-1.104 0-2 .896-2 2v3h42v-3zm0 11H3v13c0 1.104.896 2 2 2h38c1.104 0 2-.896 2-2V23zm-19 6h-4c-.553 0-1-.447-1-1 0-.552.447-1 1-1h4c.553 0 1 .448 1 1 0 .553-.447 1-1 1zm-9 0H8c-.553 0-1-.447-1-1 0-.552.447-1 1-1h9c.553 0 1 .448 1 1 0 .553-.447 1-1 1zm-9 3h6c.553 0 1 .448 1 1 0 .553-.447 1-1 1H8c-.553 0-1-.447-1-1 0-.552.447-1 1-1z" fill-rule="evenodd"/></svg>