<svg viewBox="0 0 220 55" xmlns="http://www.w3.org/2000/svg" xmlns:xlink= "http://www.w3.org/1999/xlink">
    <path fill="#555" d="M45.33327.9011H9.86774C4.99172.9011.9998 4.89112.9998 9.76902v35.46553c0 4.87477 3.99192 8.8642 8.86794 8.8642h35.46553c4.87602 0 8.86794-3.98943 8.86794-8.8642V9.76903c0-4.8779-3.9919-8.86794-8.86793-8.86794m-.806 40.7083c0 1.54953-1.269 2.81478-2.8204 2.81478H13.49164c-1.55016 0-2.81977-1.26462-2.81977-2.81478V13.3948c0-1.55015 1.2696-2.81914 2.81977-2.81914h28.2152c1.55142 0 2.8204 1.269 2.8204 2.81915v28.2146zm-9.6702-8.4668c0 .88847-.72542 1.612-1.61015 1.612H21.96284c-.88724 0-1.61014-.72353-1.61014-1.612V21.8585c0-.88598.7229-1.61076 1.61014-1.61076h11.28408c.88473 0 1.61014.72478 1.61014 1.61076v11.2841zM78.82314 44.969c-3.15405 0-6.18626-1.21587-8.3225-3.3496-1.9069-1.9013-2.96346-4.37305-2.96346-6.95915h3.19528c0 1.7326.71666 3.40147 2.0244 4.70296 1.5389 1.53204 3.7526 2.41428 6.06815 2.41428h.02625c4.45803 0 8.07944-3.1172 8.07944-6.94915-.0025-2.87476-1.59203-5.15657-9.32782-6.94665-3.1478-.72916-5.27028-1.70386-6.68485-3.06657-1.5033-1.4583-2.23995-3.39897-2.23995-5.93195 0-5.00224 4.48427-9.07475 9.9976-9.07475 2.64295 0 5.13282.9091 7.01538 2.5611 1.9419 1.7051 3.01534 4.00566 3.01534 6.4768h-3.1953c0-3.2253-3.06406-5.84512-6.83542-5.84512-3.69013 0-6.80544 2.69418-6.80544 5.88197 0 2.91412 1.00032 4.6261 6.45492 5.88884 5.8245 1.34584 11.78644 3.59703 11.8008 10.05445 0 2.74792-1.1915 5.31652-3.35523 7.23344-2.11936 1.87817-4.93225 2.9091-7.91823 2.9091h-.02936zM116.43926 54.0519V40.0686h-.08997c-2.0725 3.17404-5.64268 4.80542-9.39592 4.80542-7.2322 0-12.97108-5.43086-12.97108-12.70678 0-7.23656 5.87385-12.61806 12.97108-12.61806 3.75324 0 7.32403 1.63325 9.3959 4.85416h.08998V20.1665h3.0897v33.886h-3.0897zm-9.48588-31.72292c-5.73702 0-9.87764 4.27808-9.87764 9.9695 0 5.64953 4.23185 9.79515 9.87764 9.79515 5.47397 0 9.66333-4.45803 9.66333-9.84202.00063-5.38024-4.18873-9.92262-9.66332-9.92262M173.3333 44.2986v-4.23373h-.08997c-2.11998 3.1728-5.64642 4.8048-9.39716 4.8048-7.2303 0-12.96983-5.4246-12.96983-12.70304 0-7.2353 5.86635-12.62056 12.96983-12.62056 3.79573 0 7.32404 1.59202 9.39716 4.8548h.08997v-4.23373h3.0847V44.2986h-3.0847zm-9.48775-21.96962c-5.7314 0-9.8789 4.27808-9.8789 9.97074 0 5.6458 4.23435 9.79578 9.8789 9.79578 5.47084 0 9.6602-4.46115 9.6602-9.84264 0-5.3815-4.18936-9.92388-9.6602-9.92388M185.67394 30.1816v14.11886h-3.09156V20.164h3.09156v3.48583h.08185c1.32834-3.0878 3.6639-3.8832 6.7967-4.10376v3.2684c-4.23436.35238-6.87856 3.0422-6.87856 7.36714M218.947 33.3594h-21.9696c.2218 4.76356 4.63797 8.73548 9.35842 8.73548 3.70388 0 7.3234-2.11998 8.64738-5.69265h3.25964c-1.75946 5.02723-6.52427 8.4668-11.86516 8.4668-6.96852 0-12.5712-5.68827-12.5712-12.61742 0-6.87916 5.60268-12.70615 12.52934-12.70615 7.06036 0 12.6643 5.9582 12.6643 12.9317 0 .3043-.0531.56984-.0531.88225m-12.56934-11.0323c-4.81167 0-8.64738 3.52957-9.40028 8.25126h18.84055c-.79476-4.7217-4.5855-8.25125-9.44027-8.25125M143.4942 44.32983V40.5591h-.0881c-1.4202 2.97347-4.56612 4.34743-7.75952 4.34743-3.14843 0-6.3381-1.10717-8.3356-3.63265-1.72574-2.17372-2.12374-5.10033-2.12374-7.80202V20.0828h3.10156V33.425c0 5.00974 1.8157 8.69112 7.3584 8.69112 2.03688 0 3.6339-.53608 5.14282-1.95503 2.12998-2.03315 2.5255-4.43367 2.5255-7.26656V20.0828h3.1053v24.2464h-2.92662v.00063z"/>
</svg>
