<?xml version="1.0" encoding="utf-8"?>
<!-- Generator: Adobe Illustrator 15.1.0, SVG Export Plug-In . SVG Version: 6.00 Build 0)  -->
<!DOCTYPE svg PUBLIC "-//W3C//DTD SVG 1.1//EN" "http://www.w3.org/Graphics/SVG/1.1/DTD/svg11.dtd">
<svg version="1.1" id="Layer_1" xmlns="http://www.w3.org/2000/svg" xmlns:xlink="http://www.w3.org/1999/xlink" x="0px" y="0px"
	 width="227.48px" height="59.987px" viewBox="0 0 227.48 59.987" enable-background="new 0 0 227.48 59.987" xml:space="preserve">
<path id="path2479_1_" fill="#010101" d="M205.925,29.012c-5.672,7.632-3.896,18.837,0.951,22.069
	c8.553,5.905,17.898-6.42,13.615-18.684c-4.273-12.623-14.979-21.447-29.549-23.97C159.333,3.118,96.81,35.834,57.157,45.846
	C27.702,53.283,9.709,42.108,0,29.731c19.955,13.438,38.144,8.765,56.858,5.466C99.806,27.625,144.228-4.519,191.3,0.537
	c21.977,3.122,37.375,23.871,36.107,40.142c-0.111,1.445-0.355,2.855-0.738,4.217c-2.893,9.642-7.977,13.596-12.479,14.77
	C201.952,62.852,189.827,41.642,205.925,29.012z"/>
</svg>
