<!DOCTYPE svg PUBLIC "-//W3C//DTD SVG 1.1//EN" "http://www.w3.org/Graphics/SVG/1.1/DTD/svg11.dtd">
<svg version="1.1" xmlns="http://www.w3.org/2000/svg" xmlns:xlink="http://www.w3.org/1999/xlink" x="0px" y="0px" viewBox="0 0 214.482 59.484" enable-background="new 0 0 214.482 59.484" xml:space="preserve">
	<path id="path2383_1_" fill="#010101" d="M20.326,30.715c5.347-7.567,3.673-18.679-0.898-21.885
	C11.365,2.975,2.552,15.196,6.591,27.357c4.031,12.518,14.122,21.268,27.859,23.77c29.804,5.266,88.753-27.178,126.14-37.105
	c27.772-7.375,44.737,3.707,53.892,15.98c-18.814-13.327-35.962-8.691-53.61-5.42c-40.492,7.508-82.376,39.385-126.758,34.37
	C13.393,55.857-1.125,35.281,0.068,19.146c0.106-1.434,0.336-2.832,0.697-4.181C3.493,5.404,8.285,1.482,12.531,0.32
	C24.071-2.842,35.503,18.191,20.326,30.715z"/>
</svg>
